<?xml version="1.0" encoding="UTF-8" standalone="no"?>
<!-- Created with Inkscape (http://www.inkscape.org/) -->

<svg
   width="500"
   height="500"
   viewBox="0 0 132.29167 132.29167"
   version="1.1"
   id="svg1"
   xml:space="preserve"
   inkscape:version="1.3.2 (091e20e, 2023-11-25, custom)"
   sodipodi:docname="favicon.svg"
   inkscape:export-filename="グラデicon.png"
   inkscape:export-xdpi="96"
   inkscape:export-ydpi="96"
   xmlns:inkscape="http://www.inkscape.org/namespaces/inkscape"
   xmlns:sodipodi="http://sodipodi.sourceforge.net/DTD/sodipodi-0.dtd"
   xmlns:xlink="http://www.w3.org/1999/xlink"
   xmlns="http://www.w3.org/2000/svg"
   xmlns:svg="http://www.w3.org/2000/svg"><sodipodi:namedview
     id="namedview1"
     pagecolor="#505050"
     bordercolor="#eeeeee"
     borderopacity="1"
     inkscape:showpageshadow="0"
     inkscape:pageopacity="0"
     inkscape:pagecheckerboard="0"
     inkscape:deskcolor="#d1d1d1"
     inkscape:document-units="mm"
     showgrid="true"
     inkscape:zoom="1.5387258"
     inkscape:cx="131.92734"
     inkscape:cy="251.18185"
     inkscape:window-width="2560"
     inkscape:window-height="1494"
     inkscape:window-x="-11"
     inkscape:window-y="-11"
     inkscape:window-maximized="1"
     inkscape:current-layer="layer1"><inkscape:grid
       id="grid1"
       units="px"
       originx="-390.72849"
       originy="-429.20062"
       spacingx="0.26458333"
       spacingy="0.26458334"
       empcolor="#0099e5"
       empopacity="0.30196078"
       color="#0099e5"
       opacity="0.14901961"
       empspacing="5"
       dotted="false"
       gridanglex="30"
       gridanglez="30"
       visible="true" /></sodipodi:namedview><defs
     id="defs1"><linearGradient
       id="linearGradient94"
       inkscape:collect="always"><stop
         style="stop-color:#ffb847;stop-opacity:1;"
         offset="0"
         id="stop94" /><stop
         style="stop-color:#ff34ea;stop-opacity:1;"
         offset="1"
         id="stop95" /></linearGradient><linearGradient
       x1="170.75"
       y1="110.75"
       x2="309.25"
       y2="249.25"
       gradientUnits="userSpaceOnUse"
       id="color-1"
       gradientTransform="matrix(0.26458333,0,0,0.26458333,58.202638,84.256729)"><stop
         offset="0"
         stop-color="#ffb133"
         id="stop1"
         style="stop-color:#fbb100;stop-opacity:1;" /><stop
         offset="1"
         stop-color="#9933ff"
         id="stop2"
         style="stop-color:#8c33ff;stop-opacity:1;" /></linearGradient><linearGradient
       inkscape:collect="always"
       xlink:href="#linearGradient94"
       id="linearGradient95"
       x1="121.60342"
       y1="123.77637"
       x2="121.60342"
       y2="140.51617"
       gradientUnits="userSpaceOnUse"
       gradientTransform="matrix(6.9092072,0,0,6.9092072,-673.19245,-732.31432)" /><linearGradient
       x1="170.75"
       y1="110.75"
       x2="309.25"
       y2="249.25"
       gradientUnits="userSpaceOnUse"
       id="color-1-8"
       gradientTransform="matrix(0.26458333,0,0,0.26458333,21.557845,79.595742)"><stop
         offset="0"
         stop-color="#ffb133"
         id="stop1-0" /><stop
         offset="1"
         stop-color="#9933ff"
         id="stop2-1" /></linearGradient><linearGradient
       inkscape:collect="always"
       xlink:href="#linearGradient94"
       id="linearGradient96"
       gradientUnits="userSpaceOnUse"
       x1="121.60342"
       y1="123.77637"
       x2="121.60342"
       y2="140.51617"
       gradientTransform="matrix(1.3693755,0,0,1.3693755,-44.672129,-47.687262)" /><linearGradient
       inkscape:collect="always"
       xlink:href="#linearGradient94"
       id="linearGradient97"
       gradientUnits="userSpaceOnUse"
       gradientTransform="matrix(1.3693755,0,0,1.3693755,-44.835818,-49.062025)"
       x1="121.60342"
       y1="123.77637"
       x2="121.60342"
       y2="140.51617" /><filter
       inkscape:collect="always"
       style="color-interpolation-filters:sRGB"
       id="filter97"
       x="-0.16680724"
       y="-0.22616173"
       width="1.3336145"
       height="1.4523235"><feGaussianBlur
         inkscape:collect="always"
         stdDeviation="1.357765"
         id="feGaussianBlur97" /></filter><filter
       inkscape:collect="always"
       style="color-interpolation-filters:sRGB"
       id="filter98"
       x="-0.16680349"
       y="-0.22616105"
       width="1.333607"
       height="1.4523221"><feGaussianBlur
         inkscape:collect="always"
         stdDeviation="1.3577838"
         id="feGaussianBlur98" /></filter></defs><g
     inkscape:label="Layer 1"
     inkscape:groupmode="layer"
     id="layer1"
     transform="translate(-103.38024,-113.55933)"><path
       style="opacity:0.4;mix-blend-mode:normal;fill:url(#linearGradient97);fill-rule:nonzero;stroke:none;stroke-width:0;stroke-linecap:butt;stroke-linejoin:miter;stroke-miterlimit:10;stroke-dasharray:none;stroke-dashoffset:0;filter:url(#filter98)"
       d="m 126.02987,128.94947 c -0.16538,-0.0207 -0.56752,0.39486 -0.56752,0.39486 l -16.0409,13.68302 c 0,0 -0.65698,0.49205 -0.19035,0.27456 0.24136,-0.11243 0.30429,-0.0934 0.30429,-0.0934 l 18.67403,-7.68927 c 0,0 0.25523,-0.13118 0.34958,-0.35453 0.0945,-0.2234 -0.005,-0.45926 -0.005,-0.45926 l -2.15973,-5.24506 c 0,0 -0.22243,-0.49325 -0.36373,-0.51092 z"
       id="path97"
       transform="matrix(6.5637967,0,0,6.5637967,-625.28225,-691.53932)" /><path
       style="opacity:0.4;mix-blend-mode:normal;fill:url(#linearGradient96);fill-rule:nonzero;stroke:none;stroke-width:0;stroke-linecap:butt;stroke-linejoin:miter;stroke-miterlimit:10;stroke-dasharray:none;stroke-dashoffset:0;filter:url(#filter97)"
       d="m 134.45813,121.80913 c -0.0203,-10e-4 -0.0682,0.0151 -0.15567,0.0559 -0.24138,0.11243 -0.30428,0.0934 -0.30428,0.0934 l -18.67404,7.68927 c 0,0 -0.25522,0.13119 -0.34957,0.35453 -0.0945,0.2234 0.005,0.45926 0.005,0.45926 l 2.15972,5.24436 c 0,0 0.22241,0.49326 0.36373,0.51092 0.16537,0.0207 0.56753,-0.39487 0.56753,-0.39487 l 16.04087,-13.68301 c 0,0 0.4338,-0.32468 0.34602,-0.32977 z"
       id="path96"
       transform="matrix(6.5637967,0,0,6.5637967,-630.1171,-687.75198)" /><path
       id="path3"
       style="mix-blend-mode:normal;fill:url(#linearGradient95);fill-rule:nonzero;stroke:none;stroke-width:0;stroke-linecap:butt;stroke-linejoin:miter;stroke-miterlimit:10;stroke-dasharray:none;stroke-dashoffset:0"
       d="m 230.61233,122.88258 c -0.1022,-0.006 -0.34407,0.076 -0.78545,0.28189 -1.21788,0.56725 -1.53529,0.47121 -1.53529,0.47121 l -94.22015,38.79631 c 0,0 -1.28773,0.66191 -1.7638,1.7888 -0.47674,1.12716 0.0277,2.31722 0.0277,2.31722 l 10.89691,26.46045 c 0,0 1.1222,2.48877 1.83523,2.57788 0.83434,0.1043 2.86344,-1.99232 2.86344,-1.99232 l 80.93461,-69.03784 c 0,0 2.18875,-1.63818 1.74589,-1.66387 z m -41.69907,42.96303 c -0.83444,-0.1043 -2.86344,1.99228 -2.86344,1.99228 l -80.93461,69.0379 c 0,0 -3.31483,2.48271 -0.96045,1.38531 1.21783,-0.56725 1.5353,-0.47121 1.5353,-0.47121 l 94.22017,-38.79631 c 0,0 1.28773,-0.66191 1.76378,-1.7888 0.47674,-1.12717 -0.0277,-2.31722 -0.0277,-2.31722 L 190.7494,168.42351 c 0,0 -1.12224,-2.48867 -1.83523,-2.57782 z" /></g></svg>
