<?xml version="1.0" encoding="UTF-8" standalone="no"?>
<!-- Created with Inkscape (http://www.inkscape.org/) -->

<svg
   width="405"
   height="405"
   viewBox="0 0 107.15626 107.15625"
   version="1.1"
   id="svg1"
   xml:space="preserve"
   inkscape:version="1.4.2 (f4327f4, 2025-05-13)"
   sodipodi:docname="グラデicon.svg"
   inkscape:export-filename="グラデicon.png"
   inkscape:export-xdpi="96"
   inkscape:export-ydpi="96"
   xmlns:inkscape="http://www.inkscape.org/namespaces/inkscape"
   xmlns:sodipodi="http://sodipodi.sourceforge.net/DTD/sodipodi-0.dtd"
   xmlns:xlink="http://www.w3.org/1999/xlink"
   xmlns="http://www.w3.org/2000/svg"
   xmlns:svg="http://www.w3.org/2000/svg"><sodipodi:namedview
     id="namedview1"
     pagecolor="#505050"
     bordercolor="#eeeeee"
     borderopacity="1"
     inkscape:showpageshadow="0"
     inkscape:pageopacity="0"
     inkscape:pagecheckerboard="0"
     inkscape:deskcolor="#d1d1d1"
     inkscape:document-units="mm"
     showgrid="true"
     inkscape:zoom="1.5387258"
     inkscape:cx="200.49056"
     inkscape:cy="80.911102"
     inkscape:window-width="2560"
     inkscape:window-height="1566"
     inkscape:window-x="-11"
     inkscape:window-y="-11"
     inkscape:window-maximized="1"
     inkscape:current-layer="layer1"><inkscape:grid
       id="grid1"
       units="px"
       originx="-405.41995"
       originy="-449.10733"
       spacingx="0.26458333"
       spacingy="0.26458334"
       empcolor="#0099e5"
       empopacity="0.30196078"
       color="#0099e5"
       opacity="0.14901961"
       empspacing="5"
       dotted="false"
       gridanglex="30"
       gridanglez="30"
       visible="true" /></sodipodi:namedview><defs
     id="defs1"><linearGradient
       id="linearGradient94"
       inkscape:collect="always"><stop
         style="stop-color:#ffb847;stop-opacity:1;"
         offset="0"
         id="stop94" /><stop
         style="stop-color:#ff34ea;stop-opacity:1;"
         offset="1"
         id="stop95" /></linearGradient><linearGradient
       x1="170.75"
       y1="110.75"
       x2="309.25"
       y2="249.25"
       gradientUnits="userSpaceOnUse"
       id="color-1"
       gradientTransform="matrix(0.26458333,0,0,0.26458333,58.202638,84.256729)"><stop
         offset="0"
         stop-color="#ffb133"
         id="stop1"
         style="stop-color:#fbb100;stop-opacity:1;" /><stop
         offset="1"
         stop-color="#9933ff"
         id="stop2"
         style="stop-color:#8c33ff;stop-opacity:1;" /></linearGradient><linearGradient
       inkscape:collect="always"
       xlink:href="#linearGradient94"
       id="linearGradient95"
       x1="121.60342"
       y1="123.77637"
       x2="121.60342"
       y2="140.51617"
       gradientUnits="userSpaceOnUse"
       gradientTransform="matrix(3.6101085,0,0,3.6101085,-267.35148,-290.01823)" /><linearGradient
       x1="170.75"
       y1="110.75"
       x2="309.25"
       y2="249.25"
       gradientUnits="userSpaceOnUse"
       id="color-1-8"
       gradientTransform="matrix(0.26458333,0,0,0.26458333,21.557845,79.595742)"><stop
         offset="0"
         stop-color="#ffb133"
         id="stop1-0" /><stop
         offset="1"
         stop-color="#9933ff"
         id="stop2-1" /></linearGradient><linearGradient
       inkscape:collect="always"
       xlink:href="#linearGradient94"
       id="linearGradient96"
       gradientUnits="userSpaceOnUse"
       x1="121.60342"
       y1="123.77637"
       x2="121.60342"
       y2="140.51617"
       gradientTransform="matrix(1.3693755,0,0,1.3693755,-44.672129,-47.687262)" /><linearGradient
       inkscape:collect="always"
       xlink:href="#linearGradient94"
       id="linearGradient97"
       gradientUnits="userSpaceOnUse"
       gradientTransform="matrix(1.3693755,0,0,1.3693755,-44.835818,-49.062025)"
       x1="121.60342"
       y1="123.77637"
       x2="121.60342"
       y2="140.51617" /><filter
       inkscape:collect="always"
       style="color-interpolation-filters:sRGB"
       id="filter97"
       x="-0.16680724"
       y="-0.22616173"
       width="1.3336145"
       height="1.4523235"><feGaussianBlur
         inkscape:collect="always"
         stdDeviation="1.357765"
         id="feGaussianBlur97" /></filter><filter
       inkscape:collect="always"
       style="color-interpolation-filters:sRGB"
       id="filter98"
       x="-0.16680349"
       y="-0.22616105"
       width="1.333607"
       height="1.4523221"><feGaussianBlur
         inkscape:collect="always"
         stdDeviation="1.3577838"
         id="feGaussianBlur98" /></filter></defs><g
     inkscape:label="Layer 1"
     inkscape:groupmode="layer"
     id="layer1"
     transform="translate(-118.07172,-133.46604)"><path
       style="opacity:0.4;mix-blend-mode:normal;fill:url(#linearGradient97);fill-rule:nonzero;stroke:none;stroke-width:0;stroke-linecap:butt;stroke-linejoin:miter;stroke-miterlimit:10;stroke-dasharray:none;stroke-dashoffset:0;filter:url(#filter98)"
       d="m 126.02987,128.94947 c -0.16538,-0.0207 -0.56752,0.39486 -0.56752,0.39486 l -16.0409,13.68302 c 0,0 -0.65698,0.49205 -0.19035,0.27456 0.24136,-0.11243 0.30429,-0.0934 0.30429,-0.0934 l 18.67403,-7.68927 c 0,0 0.25523,-0.13118 0.34958,-0.35453 0.0945,-0.2234 -0.005,-0.45926 -0.005,-0.45926 l -2.15973,-5.24506 c 0,0 -0.22243,-0.49325 -0.36373,-0.51092 z"
       id="path97"
       transform="matrix(3.4296291,0,0,3.4296291,-242.31807,-268.71301)" /><path
       style="opacity:0.4;mix-blend-mode:normal;fill:url(#linearGradient96);fill-rule:nonzero;stroke:none;stroke-width:0;stroke-linecap:butt;stroke-linejoin:miter;stroke-miterlimit:10;stroke-dasharray:none;stroke-dashoffset:0;filter:url(#filter97)"
       d="m 134.45813,121.80913 c -0.0203,-10e-4 -0.0682,0.0151 -0.15567,0.0559 -0.24138,0.11243 -0.30428,0.0934 -0.30428,0.0934 l -18.67404,7.68927 c 0,0 -0.25522,0.13119 -0.34957,0.35453 -0.0945,0.2234 0.005,0.45926 0.005,0.45926 l 2.15972,5.24436 c 0,0 0.22241,0.49326 0.36373,0.51092 0.16537,0.0207 0.56753,-0.39487 0.56753,-0.39487 l 16.04087,-13.68301 c 0,0 0.4338,-0.32468 0.34602,-0.32977 z"
       id="path96"
       transform="matrix(3.4296291,0,0,3.4296291,-244.84431,-266.7341)" /><path
       id="path3"
       style="mix-blend-mode:normal;fill:url(#linearGradient95);fill-rule:nonzero;stroke:none;stroke-width:0;stroke-linecap:butt;stroke-linejoin:miter;stroke-miterlimit:10;stroke-dasharray:none;stroke-dashoffset:0"
       d="m 204.89276,156.82806 c -0.0534,-0.003 -0.17978,0.0397 -0.4104,0.14729 -0.63635,0.29639 -0.8022,0.24621 -0.8022,0.24621 l -49.23068,20.27134 c 0,0 -0.67285,0.34585 -0.9216,0.93466 -0.2491,0.58895 0.0145,1.21076 0.0145,1.21076 l 5.69371,13.82577 c 0,0 0.58636,1.3004 0.95892,1.34696 0.43595,0.0545 1.49617,-1.041 1.49617,-1.041 l 42.28889,-36.07275 c 0,0 1.14364,-0.85596 0.91224,-0.86938 z m -21.78805,22.44848 c -0.436,-0.0545 -1.49617,1.04098 -1.49617,1.04098 l -42.28889,36.07278 c 0,0 -1.73202,1.29723 -0.50184,0.72383 0.63632,-0.29639 0.8022,-0.24621 0.8022,-0.24621 l 49.23069,-20.27134 c 0,0 0.67285,-0.34585 0.92159,-0.93466 0.2491,-0.58895 -0.0145,-1.21076 -0.0145,-1.21076 l -5.69371,-13.82765 c 0,0 -0.58638,-1.30035 -0.95892,-1.34693 z" /></g></svg>
